# xmcd
#
# Track frame offsets: 
#        150
#        23482
#        61650
#        89185
#        92095
#        119412
#        127900
#        148425
#        152640
#        176960
#        187247
#        231925
#        238402
#        268370
#        286377
#
# Disc length: 4645 seconds
#
# Revision: 134
# Processed by: cddbd v1.5.2PL0 Copyright (c) Steve Scherf et al.
# Submitted via: ExactAudioCopyFreeDBPlugin 1.0
#
DISCID=ea12230f
DTITLE=Tool - Ænima
DYEAR=1996
DGENRE=Progressive Metal
TTITLE0=Stinkfist
TTITLE1=Eulogy
TTITLE2=H.
TTITLE3=Useful Idiot
TTITLE4=Forty Six and 2
TTITLE5=Message to Harry Manback
TTITLE6=Hooker with a Penis
TTITLE7=Intermission
TTITLE8=Jimmy
TTITLE9=Die Eier von Satan
TTITLE10=Pushit
TTITLE11=Cesaro Summability
TTITLE12=Ænema
TTITLE13=(-) Ions
TTITLE14=Third Eye
EXTD=
EXTT0=
EXTT1=
EXTT2=
EXTT3=
EXTT4=
EXTT5=
EXTT6=
EXTT7=
EXTT8=
EXTT9=
EXTT10=
EXTT11=
EXTT12=
EXTT13=
EXTT14=
PLAYORDER=
